<?xml version="1.0" standalone="no"?>
<!DOCTYPE svg PUBLIC "-//W3C//DTD SVG 20010904//EN"
 "http://www.w3.org/TR/2001/REC-SVG-20010904/DTD/svg10.dtd">
<svg version="1.0" xmlns="http://www.w3.org/2000/svg"
 width="512.000000pt" height="512.000000pt" viewBox="0 0 512.000000 512.000000"
 preserveAspectRatio="xMidYMid meet">

<g transform="translate(0.000000,512.000000) scale(0.100000,-0.100000)"
fill="#000000" stroke="none">
<path d="M1250 4979 c-40 -16 -87 -56 -112 -96 l-23 -38 -5 -525 -5 -525 -91
135 c-50 74 -100 143 -111 152 -59 53 -185 76 -256 47 -37 -15 -337 -193 -414
-246 -93 -64 -166 -173 -198 -298 -127 -495 97 -1125 639 -1799 375 -466 891
-947 1321 -1231 411 -271 765 -406 1112 -422 288 -13 493 48 612 183 55 63
277 434 292 488 8 30 8 57 1 99 -20 109 -27 115 -482 421 -228 153 -439 289
-469 303 -45 21 -63 25 -115 21 -69 -6 -128 -32 -168 -75 -14 -15 -79 -95
-143 -178 -64 -82 -128 -156 -142 -163 -33 -18 -59 -10 -157 45 -222 127 -355
233 -614 488 l-153 150 1705 5 1704 5 44 30 c28 20 52 49 70 84 l28 55 0 1361
0 1361 -27 55 c-19 37 -42 63 -73 84 l-45 30 -1850 2 c-1204 1 -1859 -2 -1875
-8z m3684 -175 c14 -14 16 -150 16 -1345 0 -898 -3 -1337 -10 -1350 -11 -19
-41 -19 -1770 -19 l-1760 0 -61 77 c-125 158 -252 368 -252 420 -1 17 5 38 13
47 7 9 91 77 185 151 150 117 176 141 199 186 32 65 35 153 7 215 -10 23 -64
109 -120 192 l-101 152 0 633 c0 479 3 636 12 645 9 9 427 12 1819 12 1630 0
1809 -2 1823 -16z m-4152 -846 c9 -7 139 -197 289 -423 185 -278 274 -421 277
-443 6 -43 -1 -49 -183 -192 -203 -159 -226 -186 -240 -281 -9 -62 7 -117 68
-224 119 -211 242 -373 439 -580 340 -358 581 -556 866 -712 80 -44 92 -48
157 -48 118 0 146 20 302 220 147 188 163 205 201 205 18 0 164 -91 449 -281
440 -294 455 -306 435 -360 -12 -30 -206 -353 -238 -396 -38 -50 -104 -90
-190 -115 -69 -20 -101 -23 -249 -22 -150 0 -184 3 -290 28 -479 112 -974 432
-1559 1006 -312 307 -513 538 -706 815 -372 531 -515 1044 -399 1421 31 100
93 157 313 288 182 108 222 122 258 94z"/>
<path d="M1511 4586 c-26 -27 -30 -76 -10 -105 21 -30 1447 -1108 1499 -1133
61 -30 166 -30 230 1 42 20 1421 1059 1483 1117 55 52 23 144 -50 144 -17 0
-46 -10 -64 -23 -19 -13 -345 -259 -724 -547 -380 -288 -706 -530 -726 -538
-31 -12 -40 -12 -72 1 -19 9 -353 256 -741 551 -388 294 -714 540 -725 545
-33 18 -76 13 -100 -13z"/>
<path d="M3729 3371 c-29 -29 -35 -53 -22 -87 10 -27 879 -956 913 -978 86
-52 159 55 93 136 -88 106 -879 941 -900 949 -38 14 -52 11 -84 -20z"/>
<path d="M2355 3338 c-29 -29 -211 -224 -406 -433 -194 -209 -377 -406 -406
-437 -38 -41 -53 -64 -53 -85 0 -56 54 -100 106 -87 15 4 177 169 427 438 535
573 507 540 507 577 0 43 -39 79 -85 79 -31 0 -45 -9 -90 -52z"/>
</g>
</svg>
