<?xml version="1.0" standalone="no"?>
<!DOCTYPE svg PUBLIC "-//W3C//DTD SVG 20010904//EN"
 "http://www.w3.org/TR/2001/REC-SVG-20010904/DTD/svg10.dtd">
<svg version="1.0" xmlns="http://www.w3.org/2000/svg"
 width="48.000000pt" height="48.000000pt" viewBox="0 0 48.000000 48.000000"
 preserveAspectRatio="xMidYMid meet">

<g transform="translate(0.000000,48.000000) scale(0.100000,-0.100000)"
fill="#000000" stroke="none">
<path d="M215 435 c-5 -2 -22 -6 -37 -9 -35 -8 -94 -59 -115 -100 -20 -37 -21
-131 -3 -166 18 -35 60 -79 91 -96 27 -13 27 -13 49 47 l22 61 -21 22 c-40 43
-16 106 41 106 53 0 76 -65 38 -105 l-20 -22 22 -61 c21 -60 22 -61 47 -47 31
16 74 60 91 95 18 34 17 129 -2 165 -18 33 -62 77 -93 93 -23 11 -95 23 -110
17z m102 -34 c82 -38 122 -139 89 -226 -16 -40 -65 -95 -86 -95 -4 0 -15 18
-24 41 -16 39 -15 42 4 66 27 35 26 78 -5 108 -71 72 -178 -28 -115 -108 19
-24 20 -27 4 -66 -9 -23 -20 -41 -24 -41 -19 0 -64 47 -81 84 -23 50 -24 95
-4 143 21 50 42 72 90 94 51 24 99 23 152 0z"/>
</g>
</svg>
